<svg version="1.1" id="Layer_1" xmlns="http://www.w3.org/2000/svg" xmlns:xlink="http://www.w3.org/1999/xlink" x="0px" y="0px" viewBox="0 0 100 100" style="enable-background: new 0 0 100 100;" xml:space="preserve">
    <style type="text/css">
        .st0 {
            fill: #ffffff;
        }
        @keyframes cerrar {
            0% {
                transform: translateY(0px);
            }
            100% {
                transform: translateY(7px);
            }
        }
        #lock {
            animation: cerrar 1.5s alternate infinite;
        }
        
    </style>
    <polygon id="casa" points="84.7,48.3 84.7,94.2 78.5,94.2 78.5,52.1 50,39.8 21.5,52.1 21.5,94.2 15.3,94.2 15.3,48.3 50,33 " />
    <path
        id="lock"
        d="M35.6,34.6l-6.1,2.7V24.7c0-9.4,8.1-18.8,20.5-18.8c12.2,0,20.5,9.2,20.5,18.8v12.7l-6.2-2.7v-10
	c0-6.4-5.7-12.9-14.4-12.9s-14.4,6.5-14.4,12.9L35.6,34.6L35.6,34.6z"
    />
    <path
        d="M50,48.9l20.5,8.6v34h-7.3l-1.3-12.6c0-2.2-1.6-4-3.7-4.4c-2.7-0.6-5.5-1-8.2-1c-2.8-0.1-5.6,0.3-8.2,1
	c-2.1,0.5-3.6,2.3-3.7,4.4L37,91.4h-7.5V57.5L50,48.9z"
    />
    <path
        class="st0"
        d="M50,58.6c-3.6,0-4.8,2.3-4.8,3.4c0,2.6,0.4,5.1,1,7.6c1,1,2.4,1.5,3.8,1.5c1.3,0,2.6-0.6,3.6-1.5
	c0.6-0.9,1.1-4.9,1.1-7.4C54.7,61,53.6,58.6,50,58.6z"
    />
</svg>

